<?xml version="1.0" encoding="UTF-8" standalone="no"?>
<!DOCTYPE svg PUBLIC "-//W3C//DTD SVG 1.1//EN"
 "http://www.w3.org/Graphics/SVG/1.1/DTD/svg11.dtd">
<!-- Generated by graphviz version 2.38.0 (20140413.2041)
 -->
<!-- Title: controllers_diagram Pages: 1 -->
<svg width="794pt" height="852pt"
 viewBox="0.00 0.00 793.50 852.00" xmlns="http://www.w3.org/2000/svg" xmlns:xlink="http://www.w3.org/1999/xlink">
<g id="graph0" class="graph" transform="scale(1 1) rotate(0) translate(327.5 524)">
<title>controllers_diagram</title>
<polygon fill="none" stroke="none" points="-327.5,328 -327.5,-524 466,-524 466,328 -327.5,328"/>
<!-- _diagram_info -->
<g id="node1" class="node"><title>_diagram_info</title>
<text text-anchor="start" x="8" y="170.4" font-family="Times,serif" font-size="13.00">Controllers diagram</text>
<text text-anchor="start" x="8" y="184.4" font-family="Times,serif" font-size="13.00">Date: May 29 2018 &#45; 10:01</text>
<text text-anchor="start" x="8" y="198.4" font-family="Times,serif" font-size="13.00">Migration version: 20180526232754</text>
<text text-anchor="start" x="8" y="212.4" font-family="Times,serif" font-size="13.00">Generated by RailRoady 1.5.3</text>
<text text-anchor="start" x="8" y="226.4" font-family="Times,serif" font-size="13.00">http://railroady.prestonlee.com</text>
</g>
<!-- LogsController -->
<g id="node2" class="node"><title>LogsController</title>
<path fill="none" stroke="black" d="M-185.5,71.5C-185.5,71.5 -110.5,71.5 -110.5,71.5 -104.5,71.5 -98.5,65.5 -98.5,59.5 -98.5,59.5 -98.5,-129.5 -98.5,-129.5 -98.5,-135.5 -104.5,-141.5 -110.5,-141.5 -110.5,-141.5 -185.5,-141.5 -185.5,-141.5 -191.5,-141.5 -197.5,-135.5 -197.5,-129.5 -197.5,-129.5 -197.5,59.5 -197.5,59.5 -197.5,65.5 -191.5,71.5 -185.5,71.5"/>
<text text-anchor="middle" x="-148" y="-126.3" font-family="Times,serif" font-size="14.00">LogsController</text>
<polyline fill="none" stroke="black" points="-197.5,-118.5 -98.5,-118.5 "/>
<text text-anchor="start" x="-189.5" y="-103.3" font-family="Times,serif" font-size="14.00">create</text>
<text text-anchor="start" x="-189.5" y="-88.3" font-family="Times,serif" font-size="14.00">destroy</text>
<text text-anchor="start" x="-189.5" y="-73.3" font-family="Times,serif" font-size="14.00">edit</text>
<text text-anchor="start" x="-189.5" y="-58.3" font-family="Times,serif" font-size="14.00">index</text>
<text text-anchor="start" x="-189.5" y="-43.3" font-family="Times,serif" font-size="14.00">new</text>
<text text-anchor="start" x="-189.5" y="-28.3" font-family="Times,serif" font-size="14.00">show</text>
<text text-anchor="start" x="-189.5" y="-13.3" font-family="Times,serif" font-size="14.00">update</text>
<polyline fill="none" stroke="black" points="-197.5,-5.5 -98.5,-5.5 "/>
<polyline fill="none" stroke="black" points="-197.5,18.5 -98.5,18.5 "/>
<text text-anchor="start" x="-189.5" y="33.7" font-family="Times,serif" font-size="14.00">_layout</text>
<text text-anchor="start" x="-189.5" y="48.7" font-family="Times,serif" font-size="14.00">log_params</text>
<text text-anchor="start" x="-189.5" y="63.7" font-family="Times,serif" font-size="14.00">set_log</text>
</g>
<!-- DocsController -->
<g id="node3" class="node"><title>DocsController</title>
<path fill="none" stroke="black" d="M318,305.5C318,305.5 394,305.5 394,305.5 400,305.5 406,299.5 406,293.5 406,293.5 406,104.5 406,104.5 406,98.5 400,92.5 394,92.5 394,92.5 318,92.5 318,92.5 312,92.5 306,98.5 306,104.5 306,104.5 306,293.5 306,293.5 306,299.5 312,305.5 318,305.5"/>
<text text-anchor="middle" x="356" y="107.7" font-family="Times,serif" font-size="14.00">DocsController</text>
<polyline fill="none" stroke="black" points="306,115.5 406,115.5 "/>
<text text-anchor="start" x="314" y="130.7" font-family="Times,serif" font-size="14.00">create</text>
<text text-anchor="start" x="314" y="145.7" font-family="Times,serif" font-size="14.00">destroy</text>
<text text-anchor="start" x="314" y="160.7" font-family="Times,serif" font-size="14.00">edit</text>
<text text-anchor="start" x="314" y="175.7" font-family="Times,serif" font-size="14.00">index</text>
<text text-anchor="start" x="314" y="190.7" font-family="Times,serif" font-size="14.00">new</text>
<text text-anchor="start" x="314" y="205.7" font-family="Times,serif" font-size="14.00">show</text>
<text text-anchor="start" x="314" y="220.7" font-family="Times,serif" font-size="14.00">update</text>
<polyline fill="none" stroke="black" points="306,228.5 406,228.5 "/>
<polyline fill="none" stroke="black" points="306,252.5 406,252.5 "/>
<text text-anchor="start" x="314" y="267.7" font-family="Times,serif" font-size="14.00">_layout</text>
<text text-anchor="start" x="314" y="282.7" font-family="Times,serif" font-size="14.00">doc_params</text>
<text text-anchor="start" x="314" y="297.7" font-family="Times,serif" font-size="14.00">set_doc</text>
</g>
<!-- ApplicationController -->
<g id="node4" class="node"><title>ApplicationController</title>
<path fill="none" stroke="black" d="M318,53.5C318,53.5 450,53.5 450,53.5 456,53.5 462,47.5 462,41.5 462,41.5 462,-27.5 462,-27.5 462,-33.5 456,-39.5 450,-39.5 450,-39.5 318,-39.5 318,-39.5 312,-39.5 306,-33.5 306,-27.5 306,-27.5 306,41.5 306,41.5 306,47.5 312,53.5 318,53.5"/>
<text text-anchor="middle" x="384" y="-24.3" font-family="Times,serif" font-size="14.00">ApplicationController</text>
<polyline fill="none" stroke="black" points="306,-16.5 462,-16.5 "/>
<text text-anchor="start" x="314" y="-1.3" font-family="Times,serif" font-size="14.00">configure_devise_params</text>
<polyline fill="none" stroke="black" points="306,6.5 462,6.5 "/>
<polyline fill="none" stroke="black" points="306,30.5 462,30.5 "/>
<text text-anchor="start" x="314" y="45.7" font-family="Times,serif" font-size="14.00">_layout</text>
</g>
<!-- PermissionsController -->
<g id="node5" class="node"><title>PermissionsController</title>
<path fill="none" stroke="black" d="M156,-144.5C156,-144.5 270,-144.5 270,-144.5 276,-144.5 282,-150.5 282,-156.5 282,-156.5 282,-345.5 282,-345.5 282,-351.5 276,-357.5 270,-357.5 270,-357.5 156,-357.5 156,-357.5 150,-357.5 144,-351.5 144,-345.5 144,-345.5 144,-156.5 144,-156.5 144,-150.5 150,-144.5 156,-144.5"/>
<text text-anchor="middle" x="213" y="-342.3" font-family="Times,serif" font-size="14.00">PermissionsController</text>
<polyline fill="none" stroke="black" points="144,-334.5 282,-334.5 "/>
<text text-anchor="start" x="152" y="-319.3" font-family="Times,serif" font-size="14.00">create</text>
<text text-anchor="start" x="152" y="-304.3" font-family="Times,serif" font-size="14.00">destroy</text>
<text text-anchor="start" x="152" y="-289.3" font-family="Times,serif" font-size="14.00">edit</text>
<text text-anchor="start" x="152" y="-274.3" font-family="Times,serif" font-size="14.00">index</text>
<text text-anchor="start" x="152" y="-259.3" font-family="Times,serif" font-size="14.00">new</text>
<text text-anchor="start" x="152" y="-244.3" font-family="Times,serif" font-size="14.00">show</text>
<text text-anchor="start" x="152" y="-229.3" font-family="Times,serif" font-size="14.00">update</text>
<polyline fill="none" stroke="black" points="144,-221.5 282,-221.5 "/>
<polyline fill="none" stroke="black" points="144,-197.5 282,-197.5 "/>
<text text-anchor="start" x="152" y="-182.3" font-family="Times,serif" font-size="14.00">_layout</text>
<text text-anchor="start" x="152" y="-167.3" font-family="Times,serif" font-size="14.00">permission_params</text>
<text text-anchor="start" x="152" y="-152.3" font-family="Times,serif" font-size="14.00">set_permission</text>
</g>
<!-- RolesController -->
<g id="node6" class="node"><title>RolesController</title>
<path fill="none" stroke="black" d="M-311.5,323.5C-311.5,323.5 -232.5,323.5 -232.5,323.5 -226.5,323.5 -220.5,317.5 -220.5,311.5 -220.5,311.5 -220.5,122.5 -220.5,122.5 -220.5,116.5 -226.5,110.5 -232.5,110.5 -232.5,110.5 -311.5,110.5 -311.5,110.5 -317.5,110.5 -323.5,116.5 -323.5,122.5 -323.5,122.5 -323.5,311.5 -323.5,311.5 -323.5,317.5 -317.5,323.5 -311.5,323.5"/>
<text text-anchor="middle" x="-272" y="125.7" font-family="Times,serif" font-size="14.00">RolesController</text>
<polyline fill="none" stroke="black" points="-323.5,133.5 -220.5,133.5 "/>
<text text-anchor="start" x="-315.5" y="148.7" font-family="Times,serif" font-size="14.00">create</text>
<text text-anchor="start" x="-315.5" y="163.7" font-family="Times,serif" font-size="14.00">destroy</text>
<text text-anchor="start" x="-315.5" y="178.7" font-family="Times,serif" font-size="14.00">edit</text>
<text text-anchor="start" x="-315.5" y="193.7" font-family="Times,serif" font-size="14.00">index</text>
<text text-anchor="start" x="-315.5" y="208.7" font-family="Times,serif" font-size="14.00">new</text>
<text text-anchor="start" x="-315.5" y="223.7" font-family="Times,serif" font-size="14.00">show</text>
<text text-anchor="start" x="-315.5" y="238.7" font-family="Times,serif" font-size="14.00">update</text>
<polyline fill="none" stroke="black" points="-323.5,246.5 -220.5,246.5 "/>
<polyline fill="none" stroke="black" points="-323.5,270.5 -220.5,270.5 "/>
<text text-anchor="start" x="-315.5" y="285.7" font-family="Times,serif" font-size="14.00">_layout</text>
<text text-anchor="start" x="-315.5" y="300.7" font-family="Times,serif" font-size="14.00">role_params</text>
<text text-anchor="start" x="-315.5" y="315.7" font-family="Times,serif" font-size="14.00">set_role</text>
</g>
<!-- PermissionRolesController -->
<g id="node7" class="node"><title>PermissionRolesController</title>
<path fill="none" stroke="black" d="M120,107.5C120,107.5 260,107.5 260,107.5 266,107.5 272,101.5 272,95.5 272,95.5 272,-93.5 272,-93.5 272,-99.5 266,-105.5 260,-105.5 260,-105.5 120,-105.5 120,-105.5 114,-105.5 108,-99.5 108,-93.5 108,-93.5 108,95.5 108,95.5 108,101.5 114,107.5 120,107.5"/>
<text text-anchor="middle" x="190" y="-90.3" font-family="Times,serif" font-size="14.00">PermissionRolesController</text>
<polyline fill="none" stroke="black" points="108,-82.5 272,-82.5 "/>
<text text-anchor="start" x="116" y="-67.3" font-family="Times,serif" font-size="14.00">create</text>
<text text-anchor="start" x="116" y="-52.3" font-family="Times,serif" font-size="14.00">destroy</text>
<text text-anchor="start" x="116" y="-37.3" font-family="Times,serif" font-size="14.00">edit</text>
<text text-anchor="start" x="116" y="-22.3" font-family="Times,serif" font-size="14.00">index</text>
<text text-anchor="start" x="116" y="-7.3" font-family="Times,serif" font-size="14.00">new</text>
<text text-anchor="start" x="116" y="7.7" font-family="Times,serif" font-size="14.00">show</text>
<text text-anchor="start" x="116" y="22.7" font-family="Times,serif" font-size="14.00">update</text>
<polyline fill="none" stroke="black" points="108,30.5 272,30.5 "/>
<polyline fill="none" stroke="black" points="108,54.5 272,54.5 "/>
<text text-anchor="start" x="116" y="69.7" font-family="Times,serif" font-size="14.00">_layout</text>
<text text-anchor="start" x="116" y="84.7" font-family="Times,serif" font-size="14.00">permission_role_params</text>
<text text-anchor="start" x="116" y="99.7" font-family="Times,serif" font-size="14.00">set_permission_role</text>
</g>
<!-- HomeController -->
<g id="node8" class="node"><title>HomeController</title>
<path fill="none" stroke="black" d="M336,-72.5C336,-72.5 418,-72.5 418,-72.5 424,-72.5 430,-78.5 430,-84.5 430,-84.5 430,-153.5 430,-153.5 430,-159.5 424,-165.5 418,-165.5 418,-165.5 336,-165.5 336,-165.5 330,-165.5 324,-159.5 324,-153.5 324,-153.5 324,-84.5 324,-84.5 324,-78.5 330,-72.5 336,-72.5"/>
<text text-anchor="middle" x="377" y="-150.3" font-family="Times,serif" font-size="14.00">HomeController</text>
<polyline fill="none" stroke="black" points="324,-142.5 430,-142.5 "/>
<text text-anchor="start" x="332" y="-127.3" font-family="Times,serif" font-size="14.00">index</text>
<polyline fill="none" stroke="black" points="324,-119.5 430,-119.5 "/>
<polyline fill="none" stroke="black" points="324,-95.5 430,-95.5 "/>
<text text-anchor="start" x="332" y="-80.3" font-family="Times,serif" font-size="14.00">_layout</text>
</g>
<!-- PqrTrackingsController -->
<g id="node9" class="node"><title>PqrTrackingsController</title>
<path fill="none" stroke="black" d="M-59.5,125.5C-59.5,125.5 61.5,125.5 61.5,125.5 67.5,125.5 73.5,119.5 73.5,113.5 73.5,113.5 73.5,-105.5 73.5,-105.5 73.5,-111.5 67.5,-117.5 61.5,-117.5 61.5,-117.5 -59.5,-117.5 -59.5,-117.5 -65.5,-117.5 -71.5,-111.5 -71.5,-105.5 -71.5,-105.5 -71.5,113.5 -71.5,113.5 -71.5,119.5 -65.5,125.5 -59.5,125.5"/>
<text text-anchor="middle" x="1" y="-102.3" font-family="Times,serif" font-size="14.00">PqrTrackingsController</text>
<polyline fill="none" stroke="black" points="-71.5,-94.5 73.5,-94.5 "/>
<text text-anchor="start" x="-63.5" y="-79.3" font-family="Times,serif" font-size="14.00">create</text>
<text text-anchor="start" x="-63.5" y="-64.3" font-family="Times,serif" font-size="14.00">departmentView</text>
<text text-anchor="start" x="-63.5" y="-49.3" font-family="Times,serif" font-size="14.00">destroy</text>
<text text-anchor="start" x="-63.5" y="-34.3" font-family="Times,serif" font-size="14.00">edit</text>
<text text-anchor="start" x="-63.5" y="-19.3" font-family="Times,serif" font-size="14.00">index</text>
<text text-anchor="start" x="-63.5" y="-4.3" font-family="Times,serif" font-size="14.00">new</text>
<text text-anchor="start" x="-63.5" y="10.7" font-family="Times,serif" font-size="14.00">pqr_unsigned</text>
<text text-anchor="start" x="-63.5" y="25.7" font-family="Times,serif" font-size="14.00">show</text>
<text text-anchor="start" x="-63.5" y="40.7" font-family="Times,serif" font-size="14.00">update</text>
<polyline fill="none" stroke="black" points="-71.5,48.5 73.5,48.5 "/>
<polyline fill="none" stroke="black" points="-71.5,72.5 73.5,72.5 "/>
<text text-anchor="start" x="-63.5" y="87.7" font-family="Times,serif" font-size="14.00">_layout</text>
<text text-anchor="start" x="-63.5" y="102.7" font-family="Times,serif" font-size="14.00">pqr_tracking_params</text>
<text text-anchor="start" x="-63.5" y="117.7" font-family="Times,serif" font-size="14.00">set_pqr_tracking</text>
</g>
<!-- PqrsController -->
<g id="node10" class="node"><title>PqrsController</title>
<path fill="none" stroke="black" d="M-294,-306.5C-294,-306.5 -222,-306.5 -222,-306.5 -216,-306.5 -210,-312.5 -210,-318.5 -210,-318.5 -210,-507.5 -210,-507.5 -210,-513.5 -216,-519.5 -222,-519.5 -222,-519.5 -294,-519.5 -294,-519.5 -300,-519.5 -306,-513.5 -306,-507.5 -306,-507.5 -306,-318.5 -306,-318.5 -306,-312.5 -300,-306.5 -294,-306.5"/>
<text text-anchor="middle" x="-258" y="-504.3" font-family="Times,serif" font-size="14.00">PqrsController</text>
<polyline fill="none" stroke="black" points="-306,-496.5 -210,-496.5 "/>
<text text-anchor="start" x="-298" y="-481.3" font-family="Times,serif" font-size="14.00">create</text>
<text text-anchor="start" x="-298" y="-466.3" font-family="Times,serif" font-size="14.00">destroy</text>
<text text-anchor="start" x="-298" y="-451.3" font-family="Times,serif" font-size="14.00">edit</text>
<text text-anchor="start" x="-298" y="-436.3" font-family="Times,serif" font-size="14.00">index</text>
<text text-anchor="start" x="-298" y="-421.3" font-family="Times,serif" font-size="14.00">new</text>
<text text-anchor="start" x="-298" y="-406.3" font-family="Times,serif" font-size="14.00">show</text>
<text text-anchor="start" x="-298" y="-391.3" font-family="Times,serif" font-size="14.00">update</text>
<polyline fill="none" stroke="black" points="-306,-383.5 -210,-383.5 "/>
<polyline fill="none" stroke="black" points="-306,-359.5 -210,-359.5 "/>
<text text-anchor="start" x="-298" y="-344.3" font-family="Times,serif" font-size="14.00">_layout</text>
<text text-anchor="start" x="-298" y="-329.3" font-family="Times,serif" font-size="14.00">pqr_params</text>
<text text-anchor="start" x="-298" y="-314.3" font-family="Times,serif" font-size="14.00">set_pqr</text>
</g>
<!-- AdminsController -->
<g id="node11" class="node"><title>AdminsController</title>
<path fill="none" stroke="black" d="M-168,251.5C-168,251.5 -76,251.5 -76,251.5 -70,251.5 -64,245.5 -64,239.5 -64,239.5 -64,170.5 -64,170.5 -64,164.5 -70,158.5 -76,158.5 -76,158.5 -168,158.5 -168,158.5 -174,158.5 -180,164.5 -180,170.5 -180,170.5 -180,239.5 -180,239.5 -180,245.5 -174,251.5 -168,251.5"/>
<text text-anchor="middle" x="-122" y="173.7" font-family="Times,serif" font-size="14.00">AdminsController</text>
<polyline fill="none" stroke="black" points="-180,181.5 -64,181.5 "/>
<text text-anchor="start" x="-172" y="196.7" font-family="Times,serif" font-size="14.00">index</text>
<polyline fill="none" stroke="black" points="-180,204.5 -64,204.5 "/>
<polyline fill="none" stroke="black" points="-180,228.5 -64,228.5 "/>
<text text-anchor="start" x="-172" y="243.7" font-family="Times,serif" font-size="14.00">_layout</text>
</g>
<!-- DepartmentsController -->
<g id="node12" class="node"><title>DepartmentsController</title>
<path fill="none" stroke="black" d="M-24,-162.5C-24,-162.5 94,-162.5 94,-162.5 100,-162.5 106,-168.5 106,-174.5 106,-174.5 106,-363.5 106,-363.5 106,-369.5 100,-375.5 94,-375.5 94,-375.5 -24,-375.5 -24,-375.5 -30,-375.5 -36,-369.5 -36,-363.5 -36,-363.5 -36,-174.5 -36,-174.5 -36,-168.5 -30,-162.5 -24,-162.5"/>
<text text-anchor="middle" x="35" y="-360.3" font-family="Times,serif" font-size="14.00">DepartmentsController</text>
<polyline fill="none" stroke="black" points="-36,-352.5 106,-352.5 "/>
<text text-anchor="start" x="-28" y="-337.3" font-family="Times,serif" font-size="14.00">create</text>
<text text-anchor="start" x="-28" y="-322.3" font-family="Times,serif" font-size="14.00">destroy</text>
<text text-anchor="start" x="-28" y="-307.3" font-family="Times,serif" font-size="14.00">edit</text>
<text text-anchor="start" x="-28" y="-292.3" font-family="Times,serif" font-size="14.00">index</text>
<text text-anchor="start" x="-28" y="-277.3" font-family="Times,serif" font-size="14.00">new</text>
<text text-anchor="start" x="-28" y="-262.3" font-family="Times,serif" font-size="14.00">show</text>
<text text-anchor="start" x="-28" y="-247.3" font-family="Times,serif" font-size="14.00">update</text>
<polyline fill="none" stroke="black" points="-36,-239.5 106,-239.5 "/>
<polyline fill="none" stroke="black" points="-36,-215.5 106,-215.5 "/>
<text text-anchor="start" x="-28" y="-200.3" font-family="Times,serif" font-size="14.00">_layout</text>
<text text-anchor="start" x="-28" y="-185.3" font-family="Times,serif" font-size="14.00">department_params</text>
<text text-anchor="start" x="-28" y="-170.3" font-family="Times,serif" font-size="14.00">set_department</text>
</g>
<!-- UsersController -->
<g id="node13" class="node"><title>UsersController</title>
<path fill="none" stroke="black" d="M336.5,-199C336.5,-199 415.5,-199 415.5,-199 421.5,-199 427.5,-205 427.5,-211 427.5,-211 427.5,-295 427.5,-295 427.5,-301 421.5,-307 415.5,-307 415.5,-307 336.5,-307 336.5,-307 330.5,-307 324.5,-301 324.5,-295 324.5,-295 324.5,-211 324.5,-211 324.5,-205 330.5,-199 336.5,-199"/>
<text text-anchor="middle" x="376" y="-291.8" font-family="Times,serif" font-size="14.00">UsersController</text>
<polyline fill="none" stroke="black" points="324.5,-284 427.5,-284 "/>
<text text-anchor="start" x="332.5" y="-268.8" font-family="Times,serif" font-size="14.00">index</text>
<text text-anchor="start" x="332.5" y="-253.8" font-family="Times,serif" font-size="14.00">show</text>
<polyline fill="none" stroke="black" points="324.5,-246 427.5,-246 "/>
<polyline fill="none" stroke="black" points="324.5,-222 427.5,-222 "/>
<text text-anchor="start" x="332.5" y="-206.8" font-family="Times,serif" font-size="14.00">_layout</text>
</g>
<!-- StatusesController -->
<g id="node14" class="node"><title>StatusesController</title>
<path fill="none" stroke="black" d="M-168,-180.5C-168,-180.5 -76,-180.5 -76,-180.5 -70,-180.5 -64,-186.5 -64,-192.5 -64,-192.5 -64,-381.5 -64,-381.5 -64,-387.5 -70,-393.5 -76,-393.5 -76,-393.5 -168,-393.5 -168,-393.5 -174,-393.5 -180,-387.5 -180,-381.5 -180,-381.5 -180,-192.5 -180,-192.5 -180,-186.5 -174,-180.5 -168,-180.5"/>
<text text-anchor="middle" x="-122" y="-378.3" font-family="Times,serif" font-size="14.00">StatusesController</text>
<polyline fill="none" stroke="black" points="-180,-370.5 -64,-370.5 "/>
<text text-anchor="start" x="-172" y="-355.3" font-family="Times,serif" font-size="14.00">create</text>
<text text-anchor="start" x="-172" y="-340.3" font-family="Times,serif" font-size="14.00">destroy</text>
<text text-anchor="start" x="-172" y="-325.3" font-family="Times,serif" font-size="14.00">edit</text>
<text text-anchor="start" x="-172" y="-310.3" font-family="Times,serif" font-size="14.00">index</text>
<text text-anchor="start" x="-172" y="-295.3" font-family="Times,serif" font-size="14.00">new</text>
<text text-anchor="start" x="-172" y="-280.3" font-family="Times,serif" font-size="14.00">show</text>
<text text-anchor="start" x="-172" y="-265.3" font-family="Times,serif" font-size="14.00">update</text>
<polyline fill="none" stroke="black" points="-180,-257.5 -64,-257.5 "/>
<polyline fill="none" stroke="black" points="-180,-233.5 -64,-233.5 "/>
<text text-anchor="start" x="-172" y="-218.3" font-family="Times,serif" font-size="14.00">_layout</text>
<text text-anchor="start" x="-172" y="-203.3" font-family="Times,serif" font-size="14.00">set_status</text>
<text text-anchor="start" x="-172" y="-188.3" font-family="Times,serif" font-size="14.00">status_params</text>
</g>
</g>
</svg>
