<?xml version="1.0" encoding="UTF-8" standalone="no"?>
<!DOCTYPE svg PUBLIC "-//W3C//DTD SVG 1.1//EN"
 "http://www.w3.org/Graphics/SVG/1.1/DTD/svg11.dtd">
<!-- Generated by graphviz version 2.38.0 (20140413.2041)
 -->
<!-- Title: models_diagram Pages: 1 -->
<svg width="809pt" height="333pt"
 viewBox="0.00 0.00 809.00 333.00" xmlns="http://www.w3.org/2000/svg" xmlns:xlink="http://www.w3.org/1999/xlink">
<g id="graph0" class="graph" transform="scale(1 1) rotate(0) translate(4 329)">
<title>models_diagram</title>
<polygon fill="none" stroke="none" points="-4,4 -4,-329 805,-329 805,4 -4,4"/>
<!-- _diagram_info -->
<g id="node1" class="node"><title>_diagram_info</title>
<text text-anchor="start" x="8" y="-310.6" font-family="Times,serif" font-size="13.00">Models diagram</text>
<text text-anchor="start" x="8" y="-296.6" font-family="Times,serif" font-size="13.00">Date: May 29 2018 &#45; 10:01</text>
<text text-anchor="start" x="8" y="-282.6" font-family="Times,serif" font-size="13.00">Migration version: 20180526232754</text>
<text text-anchor="start" x="8" y="-268.6" font-family="Times,serif" font-size="13.00">Generated by RailRoady 1.5.3</text>
<text text-anchor="start" x="8" y="-254.6" font-family="Times,serif" font-size="13.00">http://railroady.prestonlee.com</text>
</g>
<!-- Status -->
<g id="node2" class="node"><title>Status</title>
<ellipse fill="none" stroke="black" cx="124" cy="-105" rx="32.4942" ry="18"/>
<text text-anchor="middle" x="124" y="-101.3" font-family="Times,serif" font-size="14.00">Status</text>
</g>
<!-- PqrTracking -->
<g id="node9" class="node"><title>PqrTracking</title>
<ellipse fill="none" stroke="black" cx="191" cy="-18" rx="54.6905" ry="18"/>
<text text-anchor="middle" x="191" y="-14.3" font-family="Times,serif" font-size="14.00">PqrTracking</text>
</g>
<!-- Status&#45;&gt;PqrTracking -->
<g id="edge1" class="edge"><title>Status&#45;&gt;PqrTracking</title>
<path fill="none" stroke="#e82298" d="M141.594,-81.6795C150.868,-69.9142 162.259,-55.4621 171.766,-43.4013"/>
<ellipse fill="none" stroke="#e82298" cx="139.078" cy="-84.8707" rx="4.00002" ry="4.00002"/>
<polygon fill="#e82298" stroke="#e82298" points="171.807,-43.3495 181.531,-38.2817 174.902,-39.4227 177.997,-35.4959 177.997,-35.4959 177.997,-35.4959 174.902,-39.4227 174.463,-32.7102 171.807,-43.3495 171.807,-43.3495"/>
</g>
<!-- Pqr -->
<g id="node3" class="node"><title>Pqr</title>
<ellipse fill="none" stroke="black" cx="201" cy="-105" rx="27" ry="18"/>
<text text-anchor="middle" x="201" y="-101.3" font-family="Times,serif" font-size="14.00">Pqr</text>
</g>
<!-- Pqr&#45;&gt;PqrTracking -->
<g id="edge2" class="edge"><title>Pqr&#45;&gt;PqrTracking</title>
<path fill="none" stroke="#bfdd8f" d="M191,-77.856C190.183,-74.9038 189.485,-71.9107 189,-69 187.791,-61.7456 187.6,-53.8213 187.887,-46.4635"/>
<polygon fill="#bfdd8f" stroke="#bfdd8f" points="191.058,-78.0341 189.827,-88.9307 192.585,-82.7952 194.112,-87.5563 194.112,-87.5563 194.112,-87.5563 192.585,-82.7952 198.397,-86.1818 191.058,-78.0341 191.058,-78.0341"/>
<polygon fill="#bfdd8f" stroke="#bfdd8f" points="187.904,-46.2097 193.074,-36.5391 188.244,-41.2213 188.584,-36.2329 188.584,-36.2329 188.584,-36.2329 188.244,-41.2213 184.095,-35.9266 187.904,-46.2097 187.904,-46.2097"/>
</g>
<!-- ApplicationRecord -->
<g id="node4" class="node"><title>ApplicationRecord</title>
<ellipse fill="none" stroke="black" cx="427" cy="-286" rx="77.1866" ry="18"/>
<text text-anchor="middle" x="427" y="-282.3" font-family="Times,serif" font-size="14.00">ApplicationRecord</text>
</g>
<!-- Permission -->
<g id="node5" class="node"><title>Permission</title>
<ellipse fill="none" stroke="black" cx="282" cy="-286" rx="50.0912" ry="18"/>
<text text-anchor="middle" x="282" y="-282.3" font-family="Times,serif" font-size="14.00">Permission</text>
</g>
<!-- Role -->
<g id="node13" class="node"><title>Role</title>
<ellipse fill="none" stroke="black" cx="282" cy="-192" rx="27.0966" ry="18"/>
<text text-anchor="middle" x="282" y="-188.3" font-family="Times,serif" font-size="14.00">Role</text>
</g>
<!-- Permission&#45;&gt;Role -->
<g id="edge3" class="edge"><title>Permission&#45;&gt;Role</title>
<path fill="none" stroke="#f3324d" d="M282,-257.691C282,-245.915 282,-232.17 282,-220.386"/>
<polygon fill="#f3324d" stroke="#f3324d" points="282,-257.696 277.5,-267.695 282,-262.696 282,-267.696 282,-267.696 282,-267.696 282,-262.696 286.5,-267.696 282,-257.696 282,-257.696"/>
<polygon fill="#f3324d" stroke="#f3324d" points="282,-220.227 286.5,-210.227 282,-215.227 282,-210.227 282,-210.227 282,-210.227 282,-215.227 277.5,-210.227 282,-220.227 282,-220.227"/>
</g>
<!-- Doc -->
<g id="node6" class="node"><title>Doc</title>
<ellipse fill="none" stroke="black" cx="201" cy="-192" rx="27" ry="18"/>
<text text-anchor="middle" x="201" y="-188.3" font-family="Times,serif" font-size="14.00">Doc</text>
</g>
<!-- Doc&#45;&gt;Pqr -->
<g id="edge4" class="edge"><title>Doc&#45;&gt;Pqr</title>
<path fill="none" stroke="#01e19b" d="M201,-165.694C201,-155.512 201,-143.747 201,-133.367"/>
<ellipse fill="none" stroke="#01e19b" cx="201" cy="-169.799" rx="4" ry="4"/>
<polygon fill="#01e19b" stroke="#01e19b" points="201,-133.175 205.5,-123.175 201,-128.175 201,-123.175 201,-123.175 201,-123.175 201,-128.175 196.5,-123.175 201,-133.175 201,-133.175"/>
</g>
<!-- Ability -->
<g id="node7" class="node"><title>Ability</title>
<polygon fill="none" stroke="black" points="577.5,-304 522.5,-304 522.5,-268 577.5,-268 577.5,-304"/>
<text text-anchor="middle" x="550" y="-282.3" font-family="Times,serif" font-size="14.00">Ability</text>
</g>
<!-- Department -->
<g id="node8" class="node"><title>Department</title>
<ellipse fill="none" stroke="black" cx="383" cy="-192" rx="52.7911" ry="18"/>
<text text-anchor="middle" x="383" y="-188.3" font-family="Times,serif" font-size="14.00">Department</text>
</g>
<!-- User -->
<g id="node11" class="node"><title>User</title>
<ellipse fill="none" stroke="black" cx="282" cy="-105" rx="27.0966" ry="18"/>
<text text-anchor="middle" x="282" y="-101.3" font-family="Times,serif" font-size="14.00">User</text>
</g>
<!-- Department&#45;&gt;User -->
<g id="edge6" class="edge"><title>Department&#45;&gt;User</title>
<path fill="none" stroke="#589ed0" d="M357.45,-169.498C341.757,-156.291 321.771,-139.471 306.312,-126.46"/>
<ellipse fill="none" stroke="#589ed0" cx="360.942" cy="-172.437" rx="4.00002" ry="4.00002"/>
<polygon fill="#589ed0" stroke="#589ed0" points="305.896,-126.111 301.142,-116.228 302.07,-122.891 298.245,-119.671 298.245,-119.671 298.245,-119.671 302.07,-122.891 295.347,-123.114 305.896,-126.111 305.896,-126.111"/>
</g>
<!-- PqrTrackings -->
<g id="node14" class="node"><title>PqrTrackings</title>
<ellipse fill="none" stroke="black" cx="385" cy="-105" rx="57.6901" ry="18"/>
<text text-anchor="middle" x="385" y="-101.3" font-family="Times,serif" font-size="14.00">PqrTrackings</text>
</g>
<!-- Department&#45;&gt;PqrTrackings -->
<g id="edge5" class="edge"><title>Department&#45;&gt;PqrTrackings</title>
<path fill="none" stroke="#291aa8" d="M383.595,-165.694C383.85,-154.869 384.147,-142.254 384.402,-131.417"/>
<ellipse fill="none" stroke="#291aa8" cx="383.499" cy="-169.8" rx="4" ry="4"/>
<ellipse fill="#291aa8" stroke="#291aa8" cx="384.502" cy="-127.174" rx="4" ry="4"/>
<text text-anchor="middle" x="421.5" y="-144.8" font-family="Times,serif" font-size="14.00">pqr_trackings</text>
</g>
<!-- PermissionRole -->
<g id="node10" class="node"><title>PermissionRole</title>
<ellipse fill="none" stroke="black" cx="662" cy="-286" rx="66.8882" ry="18"/>
<text text-anchor="middle" x="662" y="-282.3" font-family="Times,serif" font-size="14.00">PermissionRole</text>
</g>
<!-- User&#45;&gt;PqrTracking -->
<g id="edge7" class="edge"><title>User&#45;&gt;PqrTracking</title>
<path fill="none" stroke="#e60cd1" d="M251.175,-91.9924C234.126,-84.8289 215.168,-75.8287 209,-69 203.108,-62.4778 199.109,-53.8858 196.41,-45.6676"/>
<ellipse fill="none" stroke="#e60cd1" cx="255.123" cy="-93.6175" rx="4.00001" ry="4.00001"/>
<polygon fill="#e60cd1" stroke="#e60cd1" points="196.399,-45.6279 198.057,-34.7882 195.06,-40.8104 193.721,-35.9929 193.721,-35.9929 193.721,-35.9929 195.06,-40.8104 189.386,-37.1976 196.399,-45.6279 196.399,-45.6279"/>
<text text-anchor="middle" x="252.5" y="-57.8" font-family="Times,serif" font-size="14.00">actualTrackings</text>
</g>
<!-- User&#45;&gt;PqrTracking -->
<g id="edge8" class="edge"><title>User&#45;&gt;PqrTracking</title>
<path fill="none" stroke="#b254a6" d="M296.355,-81.0601C300.096,-71.9957 301.683,-61.8842 296,-54 285.763,-39.7965 269.511,-31.2698 252.823,-26.1783"/>
<ellipse fill="none" stroke="#b254a6" cx="294.563" cy="-84.7568" rx="4.00002" ry="4.00002"/>
<polygon fill="#b254a6" stroke="#b254a6" points="252.653,-26.1331 244.147,-19.212 247.821,-24.8468 242.99,-23.5605 242.99,-23.5605 242.99,-23.5605 247.821,-24.8468 241.832,-27.9091 252.653,-26.1331 252.653,-26.1331"/>
<text text-anchor="middle" x="337" y="-57.8" font-family="Times,serif" font-size="14.00">destTrackings</text>
</g>
<!-- Log -->
<g id="node12" class="node"><title>Log</title>
<ellipse fill="none" stroke="black" cx="774" cy="-286" rx="27" ry="18"/>
<text text-anchor="middle" x="774" y="-282.3" font-family="Times,serif" font-size="14.00">Log</text>
</g>
<!-- Role&#45;&gt;User -->
<g id="edge9" class="edge"><title>Role&#45;&gt;User</title>
<path fill="none" stroke="#2c5756" d="M282,-165.694C282,-155.512 282,-143.747 282,-133.367"/>
<ellipse fill="none" stroke="#2c5756" cx="282" cy="-169.799" rx="4" ry="4"/>
<polygon fill="#2c5756" stroke="#2c5756" points="282,-133.175 286.5,-123.175 282,-128.175 282,-123.175 282,-123.175 282,-123.175 282,-128.175 277.5,-123.175 282,-133.175 282,-133.175"/>
</g>
</g>
</svg>
