<?xml version="1.0" encoding="UTF-8" standalone="no"?>
<!DOCTYPE svg PUBLIC "-//W3C//DTD SVG 1.1//EN"
 "http://www.w3.org/Graphics/SVG/1.1/DTD/svg11.dtd">
<!-- Generated by graphviz version 2.38.0 (20140413.2041)
 -->
<!-- Title: models_diagram Pages: 1 -->
<svg width="1095pt" height="890pt"
 viewBox="0.00 0.00 1094.50 890.00" xmlns="http://www.w3.org/2000/svg" xmlns:xlink="http://www.w3.org/1999/xlink">
<g id="graph0" class="graph" transform="scale(1 1) rotate(0) translate(4 886)">
<title>models_diagram</title>
<polygon fill="none" stroke="none" points="-4,4 -4,-886 1090.5,-886 1090.5,4 -4,4"/>
<!-- _diagram_info -->
<g id="node1" class="node"><title>_diagram_info</title>
<text text-anchor="start" x="163" y="-845.6" font-family="Times,serif" font-size="13.00">Models diagram</text>
<text text-anchor="start" x="163" y="-831.6" font-family="Times,serif" font-size="13.00">Date: May 29 2018 &#45; 10:01</text>
<text text-anchor="start" x="163" y="-817.6" font-family="Times,serif" font-size="13.00">Migration version: 20180526232754</text>
<text text-anchor="start" x="163" y="-803.6" font-family="Times,serif" font-size="13.00">Generated by RailRoady 1.5.3</text>
<text text-anchor="start" x="163" y="-789.6" font-family="Times,serif" font-size="13.00">http://railroady.prestonlee.com</text>
</g>
<!-- Status -->
<g id="node2" class="node"><title>Status</title>
<path fill="none" stroke="black" d="M12,-361C12,-361 146,-361 146,-361 152,-361 158,-367 158,-373 158,-373 158,-440 158,-440 158,-446 152,-452 146,-452 146,-452 12,-452 12,-452 6,-452 0,-446 0,-440 0,-440 0,-373 0,-373 0,-367 6,-361 12,-361"/>
<text text-anchor="middle" x="79" y="-436.8" font-family="Times,serif" font-size="14.00">Status</text>
<polyline fill="none" stroke="black" points="0,-429 158,-429 "/>
<text text-anchor="start" x="8" y="-413.8" font-family="Times,serif" font-size="14.00">id :bigint(20)</text>
<text text-anchor="start" x="8" y="-398.8" font-family="Times,serif" font-size="14.00">status_description :int(11)</text>
<text text-anchor="start" x="8" y="-383.8" font-family="Times,serif" font-size="14.00">created_at :datetime</text>
<text text-anchor="start" x="8" y="-368.8" font-family="Times,serif" font-size="14.00">updated_at :datetime</text>
</g>
<!-- PqrTracking -->
<g id="node9" class="node"><title>PqrTracking</title>
<path fill="none" stroke="black" d="M223.5,-0.5C223.5,-0.5 356.5,-0.5 356.5,-0.5 362.5,-0.5 368.5,-6.5 368.5,-12.5 368.5,-12.5 368.5,-184.5 368.5,-184.5 368.5,-190.5 362.5,-196.5 356.5,-196.5 356.5,-196.5 223.5,-196.5 223.5,-196.5 217.5,-196.5 211.5,-190.5 211.5,-184.5 211.5,-184.5 211.5,-12.5 211.5,-12.5 211.5,-6.5 217.5,-0.5 223.5,-0.5"/>
<text text-anchor="middle" x="290" y="-181.3" font-family="Times,serif" font-size="14.00">PqrTracking</text>
<polyline fill="none" stroke="black" points="211.5,-173.5 368.5,-173.5 "/>
<text text-anchor="start" x="219.5" y="-158.3" font-family="Times,serif" font-size="14.00">id :bigint(20)</text>
<text text-anchor="start" x="219.5" y="-143.3" font-family="Times,serif" font-size="14.00">pqr_id :bigint(20)</text>
<text text-anchor="start" x="219.5" y="-128.3" font-family="Times,serif" font-size="14.00">actual_user_id :bigint(20)</text>
<text text-anchor="start" x="219.5" y="-113.3" font-family="Times,serif" font-size="14.00">dest_user_id :bigint(20)</text>
<text text-anchor="start" x="219.5" y="-98.3" font-family="Times,serif" font-size="14.00">status_id :bigint(20)</text>
<text text-anchor="start" x="219.5" y="-83.3" font-family="Times,serif" font-size="14.00">department_id :bigint(20)</text>
<text text-anchor="start" x="219.5" y="-68.3" font-family="Times,serif" font-size="14.00">date :datetime</text>
<text text-anchor="start" x="219.5" y="-53.3" font-family="Times,serif" font-size="14.00">review :varchar(255)</text>
<text text-anchor="start" x="219.5" y="-38.3" font-family="Times,serif" font-size="14.00">response :varchar(255)</text>
<text text-anchor="start" x="219.5" y="-23.3" font-family="Times,serif" font-size="14.00">created_at :datetime</text>
<text text-anchor="start" x="219.5" y="-8.3" font-family="Times,serif" font-size="14.00">updated_at :datetime</text>
</g>
<!-- Status&#45;&gt;PqrTracking -->
<g id="edge1" class="edge"><title>Status&#45;&gt;PqrTracking</title>
<path fill="none" stroke="#20eabb" d="M105.042,-353.395C121.47,-322.013 143.892,-281.731 167,-248 178.544,-231.149 191.572,-213.895 204.722,-197.387"/>
<ellipse fill="none" stroke="#20eabb" cx="103.055" cy="-357.215" rx="4.00002" ry="4.00002"/>
<polygon fill="#20eabb" stroke="#20eabb" points="204.917,-197.144 214.689,-192.167 208.049,-193.246 211.181,-189.348 211.181,-189.348 211.181,-189.348 208.049,-193.246 207.673,-186.53 204.917,-197.144 204.917,-197.144"/>
</g>
<!-- Pqr -->
<g id="node3" class="node"><title>Pqr</title>
<path fill="none" stroke="black" d="M188,-301C188,-301 316,-301 316,-301 322,-301 328,-307 328,-313 328,-313 328,-500 328,-500 328,-506 322,-512 316,-512 316,-512 188,-512 188,-512 182,-512 176,-506 176,-500 176,-500 176,-313 176,-313 176,-307 182,-301 188,-301"/>
<text text-anchor="middle" x="252" y="-496.8" font-family="Times,serif" font-size="14.00">Pqr</text>
<polyline fill="none" stroke="black" points="176,-489 328,-489 "/>
<text text-anchor="start" x="184" y="-473.8" font-family="Times,serif" font-size="14.00">id :bigint(20)</text>
<text text-anchor="start" x="184" y="-458.8" font-family="Times,serif" font-size="14.00">first_name :varchar(255)</text>
<text text-anchor="start" x="184" y="-443.8" font-family="Times,serif" font-size="14.00">last_name :varchar(255)</text>
<text text-anchor="start" x="184" y="-428.8" font-family="Times,serif" font-size="14.00">email :varchar(255)</text>
<text text-anchor="start" x="184" y="-413.8" font-family="Times,serif" font-size="14.00">title :varchar(255)</text>
<text text-anchor="start" x="184" y="-398.8" font-family="Times,serif" font-size="14.00">subject :varchar(255)</text>
<text text-anchor="start" x="184" y="-383.8" font-family="Times,serif" font-size="14.00">description :text</text>
<text text-anchor="start" x="184" y="-368.8" font-family="Times,serif" font-size="14.00">date :date</text>
<text text-anchor="start" x="184" y="-353.8" font-family="Times,serif" font-size="14.00">response_date :datetime</text>
<text text-anchor="start" x="184" y="-338.8" font-family="Times,serif" font-size="14.00">doc_id :bigint(20)</text>
<text text-anchor="start" x="184" y="-323.8" font-family="Times,serif" font-size="14.00">created_at :datetime</text>
<text text-anchor="start" x="184" y="-308.8" font-family="Times,serif" font-size="14.00">updated_at :datetime</text>
</g>
<!-- Pqr&#45;&gt;PqrTracking -->
<g id="edge2" class="edge"><title>Pqr&#45;&gt;PqrTracking</title>
<path fill="none" stroke="#e9dfc2" d="M266.263,-290.644C269.691,-263.044 273.338,-233.674 276.719,-206.45"/>
<polygon fill="#e9dfc2" stroke="#e9dfc2" points="266.257,-290.696 260.559,-300.066 265.641,-295.658 265.024,-300.62 265.024,-300.62 265.024,-300.62 265.641,-295.658 269.49,-301.175 266.257,-290.696 266.257,-290.696"/>
<polygon fill="#e9dfc2" stroke="#e9dfc2" points="276.719,-206.449 282.417,-197.079 277.335,-201.487 277.951,-196.525 277.951,-196.525 277.951,-196.525 277.335,-201.487 273.485,-195.97 276.719,-206.449 276.719,-206.449"/>
</g>
<!-- ApplicationRecord -->
<g id="node4" class="node"><title>ApplicationRecord</title>
<ellipse fill="none" stroke="black" cx="614" cy="-821" rx="77.1866" ry="18"/>
<text text-anchor="middle" x="614" y="-817.3" font-family="Times,serif" font-size="14.00">ApplicationRecord</text>
</g>
<!-- Permission -->
<g id="node5" class="node"><title>Permission</title>
<path fill="none" stroke="black" d="M399.5,-775.5C399.5,-775.5 506.5,-775.5 506.5,-775.5 512.5,-775.5 518.5,-781.5 518.5,-787.5 518.5,-787.5 518.5,-854.5 518.5,-854.5 518.5,-860.5 512.5,-866.5 506.5,-866.5 506.5,-866.5 399.5,-866.5 399.5,-866.5 393.5,-866.5 387.5,-860.5 387.5,-854.5 387.5,-854.5 387.5,-787.5 387.5,-787.5 387.5,-781.5 393.5,-775.5 399.5,-775.5"/>
<text text-anchor="middle" x="453" y="-851.3" font-family="Times,serif" font-size="14.00">Permission</text>
<polyline fill="none" stroke="black" points="387.5,-843.5 518.5,-843.5 "/>
<text text-anchor="start" x="395.5" y="-828.3" font-family="Times,serif" font-size="14.00">id :bigint(20)</text>
<text text-anchor="start" x="395.5" y="-813.3" font-family="Times,serif" font-size="14.00">description :text</text>
<text text-anchor="start" x="395.5" y="-798.3" font-family="Times,serif" font-size="14.00">created_at :datetime</text>
<text text-anchor="start" x="395.5" y="-783.3" font-family="Times,serif" font-size="14.00">updated_at :datetime</text>
</g>
<!-- Role -->
<g id="node13" class="node"><title>Role</title>
<path fill="none" stroke="black" d="M399.5,-616.5C399.5,-616.5 506.5,-616.5 506.5,-616.5 512.5,-616.5 518.5,-622.5 518.5,-628.5 518.5,-628.5 518.5,-710.5 518.5,-710.5 518.5,-716.5 512.5,-722.5 506.5,-722.5 506.5,-722.5 399.5,-722.5 399.5,-722.5 393.5,-722.5 387.5,-716.5 387.5,-710.5 387.5,-710.5 387.5,-628.5 387.5,-628.5 387.5,-622.5 393.5,-616.5 399.5,-616.5"/>
<text text-anchor="middle" x="453" y="-707.3" font-family="Times,serif" font-size="14.00">Role</text>
<polyline fill="none" stroke="black" points="387.5,-699.5 518.5,-699.5 "/>
<text text-anchor="start" x="395.5" y="-684.3" font-family="Times,serif" font-size="14.00">id :bigint(20)</text>
<text text-anchor="start" x="395.5" y="-669.3" font-family="Times,serif" font-size="14.00">name :varchar(255)</text>
<text text-anchor="start" x="395.5" y="-654.3" font-family="Times,serif" font-size="14.00">description :text</text>
<text text-anchor="start" x="395.5" y="-639.3" font-family="Times,serif" font-size="14.00">created_at :datetime</text>
<text text-anchor="start" x="395.5" y="-624.3" font-family="Times,serif" font-size="14.00">updated_at :datetime</text>
</g>
<!-- Permission&#45;&gt;Role -->
<g id="edge3" class="edge"><title>Permission&#45;&gt;Role</title>
<path fill="none" stroke="#afd0dc" d="M453,-764.828C453,-754.385 453,-743.394 453,-732.751"/>
<polygon fill="#afd0dc" stroke="#afd0dc" points="453,-765.145 448.5,-775.145 453,-770.145 453,-775.145 453,-775.145 453,-775.145 453,-770.145 457.5,-775.145 453,-765.145 453,-765.145"/>
<polygon fill="#afd0dc" stroke="#afd0dc" points="453,-732.683 457.5,-722.683 453,-727.683 453,-722.683 453,-722.683 453,-722.683 453,-727.683 448.5,-722.683 453,-732.683 453,-732.683"/>
</g>
<!-- Doc -->
<g id="node6" class="node"><title>Doc</title>
<path fill="none" stroke="black" d="M198.5,-624C198.5,-624 305.5,-624 305.5,-624 311.5,-624 317.5,-630 317.5,-636 317.5,-636 317.5,-703 317.5,-703 317.5,-709 311.5,-715 305.5,-715 305.5,-715 198.5,-715 198.5,-715 192.5,-715 186.5,-709 186.5,-703 186.5,-703 186.5,-636 186.5,-636 186.5,-630 192.5,-624 198.5,-624"/>
<text text-anchor="middle" x="252" y="-699.8" font-family="Times,serif" font-size="14.00">Doc</text>
<polyline fill="none" stroke="black" points="186.5,-692 317.5,-692 "/>
<text text-anchor="start" x="194.5" y="-676.8" font-family="Times,serif" font-size="14.00">id :bigint(20)</text>
<text text-anchor="start" x="194.5" y="-661.8" font-family="Times,serif" font-size="14.00">url :varchar(255)</text>
<text text-anchor="start" x="194.5" y="-646.8" font-family="Times,serif" font-size="14.00">created_at :datetime</text>
<text text-anchor="start" x="194.5" y="-631.8" font-family="Times,serif" font-size="14.00">updated_at :datetime</text>
</g>
<!-- Doc&#45;&gt;Pqr -->
<g id="edge4" class="edge"><title>Doc&#45;&gt;Pqr</title>
<path fill="none" stroke="#0caa20" d="M252,-615.765C252,-588.778 252,-554.807 252,-522.176"/>
<ellipse fill="none" stroke="#0caa20" cx="252" cy="-619.929" rx="4" ry="4"/>
<polygon fill="#0caa20" stroke="#0caa20" points="252,-522.101 256.5,-512.101 252,-517.101 252,-512.101 252,-512.101 252,-512.101 252,-517.101 247.5,-512.101 252,-522.101 252,-522.101"/>
</g>
<!-- Ability -->
<g id="node7" class="node"><title>Ability</title>
<polygon fill="none" stroke="black" points="709.5,-798 709.5,-844 764.5,-844 764.5,-798 709.5,-798"/>
<text text-anchor="middle" x="737" y="-828.8" font-family="Times,serif" font-size="14.00">Ability</text>
<polyline fill="none" stroke="black" points="709.5,-821 764.5,-821 "/>
<text text-anchor="middle" x="737" y="-805.8" font-family="Times,serif" font-size="14.00"> </text>
</g>
<!-- Department -->
<g id="node8" class="node"><title>Department</title>
<path fill="none" stroke="black" d="M560,-616.5C560,-616.5 690,-616.5 690,-616.5 696,-616.5 702,-622.5 702,-628.5 702,-628.5 702,-710.5 702,-710.5 702,-716.5 696,-722.5 690,-722.5 690,-722.5 560,-722.5 560,-722.5 554,-722.5 548,-716.5 548,-710.5 548,-710.5 548,-628.5 548,-628.5 548,-622.5 554,-616.5 560,-616.5"/>
<text text-anchor="middle" x="625" y="-707.3" font-family="Times,serif" font-size="14.00">Department</text>
<polyline fill="none" stroke="black" points="548,-699.5 702,-699.5 "/>
<text text-anchor="start" x="556" y="-684.3" font-family="Times,serif" font-size="14.00">id :bigint(20)</text>
<text text-anchor="start" x="556" y="-669.3" font-family="Times,serif" font-size="14.00">name :varchar(255)</text>
<text text-anchor="start" x="556" y="-654.3" font-family="Times,serif" font-size="14.00">description :varchar(255)</text>
<text text-anchor="start" x="556" y="-639.3" font-family="Times,serif" font-size="14.00">created_at :datetime</text>
<text text-anchor="start" x="556" y="-624.3" font-family="Times,serif" font-size="14.00">updated_at :datetime</text>
</g>
<!-- User -->
<g id="node11" class="node"><title>User</title>
<path fill="none" stroke="black" d="M358,-248.5C358,-248.5 548,-248.5 548,-248.5 554,-248.5 560,-254.5 560,-260.5 560,-260.5 560,-552.5 560,-552.5 560,-558.5 554,-564.5 548,-564.5 548,-564.5 358,-564.5 358,-564.5 352,-564.5 346,-558.5 346,-552.5 346,-552.5 346,-260.5 346,-260.5 346,-254.5 352,-248.5 358,-248.5"/>
<text text-anchor="middle" x="453" y="-549.3" font-family="Times,serif" font-size="14.00">User</text>
<polyline fill="none" stroke="black" points="346,-541.5 560,-541.5 "/>
<text text-anchor="start" x="354" y="-526.3" font-family="Times,serif" font-size="14.00">id :bigint(20)</text>
<text text-anchor="start" x="354" y="-511.3" font-family="Times,serif" font-size="14.00">email :varchar(255)</text>
<text text-anchor="start" x="354" y="-496.3" font-family="Times,serif" font-size="14.00">encrypted_password :varchar(255)</text>
<text text-anchor="start" x="354" y="-481.3" font-family="Times,serif" font-size="14.00">reset_password_token :varchar(255)</text>
<text text-anchor="start" x="354" y="-466.3" font-family="Times,serif" font-size="14.00">reset_password_sent_at :datetime</text>
<text text-anchor="start" x="354" y="-451.3" font-family="Times,serif" font-size="14.00">remember_created_at :datetime</text>
<text text-anchor="start" x="354" y="-436.3" font-family="Times,serif" font-size="14.00">sign_in_count :int(11)</text>
<text text-anchor="start" x="354" y="-421.3" font-family="Times,serif" font-size="14.00">current_sign_in_at :datetime</text>
<text text-anchor="start" x="354" y="-406.3" font-family="Times,serif" font-size="14.00">last_sign_in_at :datetime</text>
<text text-anchor="start" x="354" y="-391.3" font-family="Times,serif" font-size="14.00">current_sign_in_ip :varchar(255)</text>
<text text-anchor="start" x="354" y="-376.3" font-family="Times,serif" font-size="14.00">last_sign_in_ip :varchar(255)</text>
<text text-anchor="start" x="354" y="-361.3" font-family="Times,serif" font-size="14.00">first_name :varchar(255)</text>
<text text-anchor="start" x="354" y="-346.3" font-family="Times,serif" font-size="14.00">last_name :varchar(255)</text>
<text text-anchor="start" x="354" y="-331.3" font-family="Times,serif" font-size="14.00">phone :varchar(255)</text>
<text text-anchor="start" x="354" y="-316.3" font-family="Times,serif" font-size="14.00">birthday :varchar(255)</text>
<text text-anchor="start" x="354" y="-301.3" font-family="Times,serif" font-size="14.00">created_at :datetime</text>
<text text-anchor="start" x="354" y="-286.3" font-family="Times,serif" font-size="14.00">updated_at :datetime</text>
<text text-anchor="start" x="354" y="-271.3" font-family="Times,serif" font-size="14.00">role_id :bigint(20)</text>
<text text-anchor="start" x="354" y="-256.3" font-family="Times,serif" font-size="14.00">department_id :bigint(20)</text>
</g>
<!-- Department&#45;&gt;User -->
<g id="edge6" class="edge"><title>Department&#45;&gt;User</title>
<path fill="none" stroke="#811919" d="M585.991,-609.306C578.604,-598.096 570.549,-585.873 562.177,-573.169"/>
<ellipse fill="none" stroke="#811919" cx="588.406" cy="-612.97" rx="4.00002" ry="4.00002"/>
<polygon fill="#811919" stroke="#811919" points="562.136,-573.108 560.391,-562.282 559.385,-568.933 556.634,-564.758 556.634,-564.758 556.634,-564.758 559.385,-568.933 552.876,-567.234 562.136,-573.108 562.136,-573.108"/>
</g>
<!-- PqrTrackings -->
<g id="node14" class="node"><title>PqrTrackings</title>
<ellipse fill="none" stroke="black" cx="636" cy="-406.5" rx="57.6901" ry="18"/>
<text text-anchor="middle" x="636" y="-402.8" font-family="Times,serif" font-size="14.00">PqrTrackings</text>
</g>
<!-- Department&#45;&gt;PqrTrackings -->
<g id="edge5" class="edge"><title>Department&#45;&gt;PqrTrackings</title>
<path fill="none" stroke="#ed407a" d="M627.546,-608.09C629.887,-552.55 633.243,-472.925 634.936,-432.744"/>
<ellipse fill="none" stroke="#ed407a" cx="627.368" cy="-612.314" rx="4" ry="4"/>
<ellipse fill="#ed407a" stroke="#ed407a" cx="635.112" cy="-428.558" rx="4" ry="4"/>
<text text-anchor="middle" x="665.5" y="-586.8" font-family="Times,serif" font-size="14.00">pqr_trackings</text>
</g>
<!-- PermissionRole -->
<g id="node10" class="node"><title>PermissionRole</title>
<path fill="none" stroke="black" d="M794.5,-768C794.5,-768 925.5,-768 925.5,-768 931.5,-768 937.5,-774 937.5,-780 937.5,-780 937.5,-862 937.5,-862 937.5,-868 931.5,-874 925.5,-874 925.5,-874 794.5,-874 794.5,-874 788.5,-874 782.5,-868 782.5,-862 782.5,-862 782.5,-780 782.5,-780 782.5,-774 788.5,-768 794.5,-768"/>
<text text-anchor="middle" x="860" y="-858.8" font-family="Times,serif" font-size="14.00">PermissionRole</text>
<polyline fill="none" stroke="black" points="782.5,-851 937.5,-851 "/>
<text text-anchor="start" x="790.5" y="-835.8" font-family="Times,serif" font-size="14.00">id :bigint(20)</text>
<text text-anchor="start" x="790.5" y="-820.8" font-family="Times,serif" font-size="14.00">permission_id :bigint(20)</text>
<text text-anchor="start" x="790.5" y="-805.8" font-family="Times,serif" font-size="14.00">role_id :bigint(20)</text>
<text text-anchor="start" x="790.5" y="-790.8" font-family="Times,serif" font-size="14.00">created_at :datetime</text>
<text text-anchor="start" x="790.5" y="-775.8" font-family="Times,serif" font-size="14.00">updated_at :datetime</text>
</g>
<!-- User&#45;&gt;PqrTracking -->
<g id="edge7" class="edge"><title>User&#45;&gt;PqrTracking</title>
<path fill="none" stroke="#d21d4d" d="M342.035,-241.71C339.959,-237.796 337.944,-233.89 336,-230 332.177,-222.35 328.527,-214.303 325.077,-206.119"/>
<ellipse fill="none" stroke="#d21d4d" cx="343.937" cy="-245.238" rx="4.00002" ry="4.00002"/>
<polygon fill="#d21d4d" stroke="#d21d4d" points="325.064,-206.086 325.431,-195.126 323.166,-201.46 321.268,-196.834 321.268,-196.834 321.268,-196.834 323.166,-201.46 317.105,-198.542 325.064,-206.086 325.064,-206.086"/>
<text text-anchor="middle" x="379.5" y="-218.8" font-family="Times,serif" font-size="14.00">actualTrackings</text>
</g>
<!-- User&#45;&gt;PqrTracking -->
<g id="edge8" class="edge"><title>User&#45;&gt;PqrTracking</title>
<path fill="none" stroke="#017f19" d="M434.614,-240.33C431.3,-231.549 427.455,-223.041 423,-215 411.393,-194.051 394.441,-175.111 376.501,-158.91"/>
<ellipse fill="none" stroke="#017f19" cx="436.047" cy="-244.346" rx="4.00001" ry="4.00001"/>
<polygon fill="#017f19" stroke="#017f19" points="376.289,-158.724 371.729,-148.751 372.527,-155.431 368.765,-152.137 368.765,-152.137 368.765,-152.137 372.527,-155.431 365.8,-155.523 376.289,-158.724 376.289,-158.724"/>
<text text-anchor="middle" x="467" y="-218.8" font-family="Times,serif" font-size="14.00">destTrackings</text>
</g>
<!-- Log -->
<g id="node12" class="node"><title>Log</title>
<path fill="none" stroke="black" d="M967.5,-760.5C967.5,-760.5 1074.5,-760.5 1074.5,-760.5 1080.5,-760.5 1086.5,-766.5 1086.5,-772.5 1086.5,-772.5 1086.5,-869.5 1086.5,-869.5 1086.5,-875.5 1080.5,-881.5 1074.5,-881.5 1074.5,-881.5 967.5,-881.5 967.5,-881.5 961.5,-881.5 955.5,-875.5 955.5,-869.5 955.5,-869.5 955.5,-772.5 955.5,-772.5 955.5,-766.5 961.5,-760.5 967.5,-760.5"/>
<text text-anchor="middle" x="1021" y="-866.3" font-family="Times,serif" font-size="14.00">Log</text>
<polyline fill="none" stroke="black" points="955.5,-858.5 1086.5,-858.5 "/>
<text text-anchor="start" x="963.5" y="-843.3" font-family="Times,serif" font-size="14.00">id :bigint(20)</text>
<text text-anchor="start" x="963.5" y="-828.3" font-family="Times,serif" font-size="14.00">action :varchar(255)</text>
<text text-anchor="start" x="963.5" y="-813.3" font-family="Times,serif" font-size="14.00">date :datetime</text>
<text text-anchor="start" x="963.5" y="-798.3" font-family="Times,serif" font-size="14.00">table :varchar(255)</text>
<text text-anchor="start" x="963.5" y="-783.3" font-family="Times,serif" font-size="14.00">created_at :datetime</text>
<text text-anchor="start" x="963.5" y="-768.3" font-family="Times,serif" font-size="14.00">updated_at :datetime</text>
</g>
<!-- Role&#45;&gt;User -->
<g id="edge9" class="edge"><title>Role&#45;&gt;User</title>
<path fill="none" stroke="#4cae43" d="M453,-608.174C453,-597.834 453,-586.657 453,-575.054"/>
<ellipse fill="none" stroke="#4cae43" cx="453" cy="-612.31" rx="4" ry="4"/>
<polygon fill="#4cae43" stroke="#4cae43" points="453,-574.758 457.5,-564.758 453,-569.758 453,-564.758 453,-564.758 453,-564.758 453,-569.758 448.5,-564.758 453,-574.758 453,-574.758"/>
</g>
</g>
</svg>
